<?xml version="1.0" standalone="no"?>
<!DOCTYPE svg PUBLIC "-//W3C//DTD SVG 20010904//EN"
 "http://www.w3.org/TR/2001/REC-SVG-20010904/DTD/svg10.dtd">
<svg version="1.0" xmlns="http://www.w3.org/2000/svg"
 width="144.000000pt" height="144.000000pt" viewBox="0 0 144.000000 144.000000"
 preserveAspectRatio="xMidYMid meet">
<metadata>
Created by potrace 1.11, written by Peter Selinger 2001-2013
</metadata>
<g transform="translate(0.000000,144.000000) scale(0.100000,-0.100000)"
fill="#000000" stroke="none">
<path d="M648 1420 c-81 -14 -187 -73 -250 -137 -144 -145 -203 -303 -202
-538 0 -179 31 -316 102 -445 69 -127 203 -237 332 -274 58 -17 180 -22 246
-10 79 14 166 65 244 144 68 67 132 161 120 174 -3 2 -30 -2 -60 -10 -88 -24
-230 -15 -304 20 -117 54 -224 199 -256 347 -17 78 -8 200 20 274 29 75 110
160 163 170 104 20 187 -57 187 -171 l0 -47 41 6 c77 10 118 81 104 181 -17
131 -117 247 -257 300 -55 20 -164 28 -230 16z"/>
</g>
</svg>
